<svg width="24.000000" height="24.000000" viewBox="0 0 24 24" fill="none" xmlns="http://www.w3.org/2000/svg" xmlns:xlink="http://www.w3.org/1999/xlink">
	<desc>
			Created with Pixso.
	</desc>
	<defs/>
	<path d="M6 11L8.4 11L8.4 13.33L6 13.33L6 11ZM6 15.66L8.4 15.66L8.4 18L6 18L6 15.66ZM10.8 11L13.2 11L13.2 13.33L10.8 13.33L10.8 11ZM10.8 15.66L13.2 15.66L13.2 18L10.8 18L10.8 15.66ZM15.6 11L18 11L18 13.33L15.6 13.33L15.6 11ZM15.6 15.66L18 15.66L18 18L15.6 18L15.6 15.66Z" fill="#FFFFFF" fill-opacity="1.000000" fill-rule="evenodd"/>
	<path d="M4.22 23L19.77 23C21 23 22 22.01 22 20.79L22 5.39C22 4.18 21 3.2 19.77 3.2L17.55 3.2L17.55 1L15.33 1L15.33 3.2L8.66 3.2L8.66 1L6.44 1L6.44 3.2L4.22 3.2C2.99 3.2 2 4.18 2 5.39L2 20.79C2 22.01 2.99 23 4.22 23ZM19.77 7.6L19.77 20.79L4.22 20.79L4.22 7.6L19.77 7.6Z" fill="#FFFFFF" fill-opacity="1.000000" fill-rule="evenodd"/>
</svg>
