<svg width="24.000000" height="24.000000" viewBox="0 0 24 24" fill="none" xmlns="http://www.w3.org/2000/svg" xmlns:xlink="http://www.w3.org/1999/xlink">
	<desc>
			Created with Pixso.
	</desc>
	<defs/>
	<rect width="24.000000" height="24.000000" transform="translate(-0.500000 0.000000)" fill="#FFFFFF" fill-opacity="0"/>
	<path d="M11.5 22C5.97 22 1.5 17.52 1.5 12C1.5 6.47 5.97 2 11.5 2C17.02 2 21.5 6.47 21.5 12C21.5 17.52 17.02 22 11.5 22Z" stroke="#FFFFFF" stroke-opacity="1.000000" stroke-width="2.000000" stroke-linejoin="round"/>
	<path d="M1.5 12L21.5 12" stroke="#FFFFFF" stroke-opacity="1.000000" stroke-width="2.000000" stroke-linejoin="round" stroke-linecap="round"/>
	<path d="M15.5 12C15.42 15.7 14 19.26 11.5 22C8.99 19.26 7.57 15.7 7.5 12C7.57 8.29 8.99 4.73 11.5 2C14 4.73 15.42 8.29 15.5 12Z" stroke="#FFFFFF" stroke-opacity="1.000000" stroke-width="2.000000" stroke-linejoin="round"/>
</svg>
