<svg width="24.000000" height="25.000000" viewBox="0 0 24 25" fill="none" xmlns="http://www.w3.org/2000/svg" xmlns:xlink="http://www.w3.org/1999/xlink">
	<desc>
			Created with Pixso.
	</desc>
	<defs/>
	<rect width="24.000000" height="24.000000" transform="translate(-0.500000 0.000000)" fill="#FFFFFF" fill-opacity="0"/>
	<path d="M19.59 11.38C19.27 10.97 18.87 10.61 18.5 10.25C17.54 9.41 16.45 8.81 15.54 7.94C13.41 5.91 12.94 2.56 14.3 0C12.94 0.31 11.75 1.04 10.74 1.83C7.04 4.72 5.58 9.81 7.33 14.19C7.38 14.33 7.44 14.47 7.44 14.65C7.44 14.95 7.23 15.23 6.94 15.34C6.61 15.48 6.27 15.4 6 15.18C5.92 15.11 5.85 15.03 5.8 14.94C4.18 12.95 3.93 10.11 5.01 7.83C2.63 9.72 1.33 12.91 1.51 15.93C1.6 16.62 1.68 17.31 1.93 18.01C2.13 18.84 2.51 19.68 2.94 20.41C4.48 22.82 7.15 24.54 10.03 24.88C13.08 25.26 16.35 24.72 18.7 22.66C21.31 20.36 22.22 16.66 20.88 13.5L20.69 13.13C20.39 12.5 19.59 11.38 19.59 11.38ZM15.08 20.13C14.68 20.47 14.02 20.83 13.51 20.97C11.91 21.52 10.31 20.75 9.37 19.83C11.07 19.44 12.08 18.22 12.38 16.98C12.62 15.87 12.17 14.95 11.98 13.88C11.81 12.86 11.84 11.98 12.22 11.02C12.5 11.55 12.78 12.08 13.12 12.5C14.22 13.88 15.95 14.5 16.32 16.38C16.38 16.58 16.41 16.77 16.41 16.98C16.45 18.12 15.94 19.37 15.08 20.13Z" fill="#FFFFFF" fill-opacity="1.000000" fill-rule="evenodd"/>
</svg>
