<svg width="24.000000" height="24.000000" viewBox="0 0 24 24" fill="none" xmlns="http://www.w3.org/2000/svg" xmlns:xlink="http://www.w3.org/1999/xlink">
	<desc>
			Created with Pixso.
	</desc>
	<defs/>
	<rect rx="-0.500000" width="23.000000" height="23.000000" transform="translate(0.500000 0.500000)" fill="#FFFFFF" fill-opacity="0"/>
	<path d="M12 3C8.1 3 5 5.99 5 9.75C5 11.04 5.4 12.04 6.09 13.06L11.26 20.62C11.42 20.85 11.68 21 12 21C12.31 21 12.58 20.84 12.73 20.62L17.9 13.06C18.59 12.04 19 11.04 19 9.75C19 5.99 15.89 3 12 3ZM12 13.49C9.85 13.49 8.1 11.81 8.1 9.74C8.1 7.66 9.85 5.98 12 5.98C14.14 5.98 15.89 7.66 15.89 9.74C15.89 11.81 14.14 13.49 12 13.49ZM12 7.5C10.7 7.5 9.66 8.5 9.66 9.75C9.66 10.99 10.7 12 12 12C13.29 12 14.33 10.99 14.33 9.75C14.33 8.5 13.29 7.5 12 7.5Z" fill="#5E5F61" fill-opacity="1.000000" fill-rule="evenodd"/>
</svg>
