<svg width="24.000000" height="24.000000" viewBox="0 0 24 24" fill="none" xmlns="http://www.w3.org/2000/svg" xmlns:xlink="http://www.w3.org/1999/xlink">
	<desc>
			Created with Pixso.
	</desc>
	<defs/>
	<rect rx="-0.500000" width="23.000000" height="23.000000" transform="translate(0.500000 0.500000)" fill="#FFFFFF" fill-opacity="0"/>
	<path d="M21 10.78L21 8C21 6.35 19.64 5 18 5L14 5C13.23 5 12.52 5.3 12 5.78C11.47 5.3 10.77 5 10 5L6 5C4.35 5 3 6.35 3 8L3 10.78C2.39 11.33 2 12.12 2 13L2 19L4 19L4 17L20 17L20 19L22 19L22 13C22 12.12 21.6 11.33 21 10.78ZM14 7L18 7C18.54 7 19 7.45 19 8L19 10L13 10L13 8C13 7.45 13.45 7 14 7ZM5 8C5 7.45 5.45 7 6 7L10 7C10.54 7 11 7.45 11 8L11 10L5 10L5 8Z" fill="#5E5F61" fill-opacity="1.000000" fill-rule="nonzero"/>
</svg>
