<svg width="24.000000" height="24.000000" viewBox="0 0 24 24" fill="none" xmlns="http://www.w3.org/2000/svg" xmlns:xlink="http://www.w3.org/1999/xlink">
	<desc>
			Created with Pixso.
	</desc>
	<defs/>
	<rect rx="-0.500000" width="23.000000" height="23.000000" transform="translate(0.500000 0.500000)" fill="#FFFFFF" fill-opacity="0"/>
	<path d="M11.58 21.5C12.68 21.5 13.58 20.6 13.58 19.5L9.58 19.5C9.58 20.03 9.79 20.53 10.17 20.91C10.54 21.28 11.05 21.5 11.58 21.5ZM17.58 15.5L17.58 10.5C17.58 7.43 15.94 4.86 13.08 4.17L13.08 3.5C13.08 2.67 12.41 2 11.58 2C10.75 2 10.08 2.67 10.08 3.5L10.08 4.17C7.21 4.86 5.58 7.42 5.58 10.5L5.58 15.5L4.29 16.79C3.66 17.42 4.1 18.5 4.99 18.5L18.16 18.5C19.05 18.5 19.5 17.42 18.87 16.79L17.58 15.5Z" fill="#5E5F61" fill-opacity="1.000000" fill-rule="evenodd"/>
</svg>
