<svg width="24.000000" height="24.000000" viewBox="0 0 24 24" fill="none" xmlns="http://www.w3.org/2000/svg" xmlns:xlink="http://www.w3.org/1999/xlink">
	<desc>
			Created with Pixso.
	</desc>
	<defs/>
	<rect id="Icon" width="24.000000" height="24.000000" fill="#FFFFFF" fill-opacity="0"/>
	<path id="Vector" d="M5.21 8.27L8.44 9L12 7L6.9 7.11C6.85 7.11 6.8 7.12 6.76 7.14L5.14 7.86C5.09 7.88 5.05 7.92 5.03 7.96C5 8 4.99 8.04 5 8.08C5 8.13 5.03 8.17 5.07 8.2C5.1 8.24 5.15 8.26 5.21 8.27Z" fill="#9F9F9F" fill-opacity="1.000000" fill-rule="evenodd"/>
	<path id="Vector" d="M21.3 5.77L17.75 5.04C17.45 4.98 17.14 4.98 16.84 5.04C16.54 5.1 16.26 5.23 16.02 5.4L5.3 12.8L2.72 12.69C2.58 12.69 2.43 12.73 2.31 12.81C2.19 12.88 2.09 13 2.04 13.13C1.99 13.26 1.98 13.4 2.02 13.54C2.06 13.67 2.14 13.79 2.26 13.88L4.76 15.77C4.8 15.8 4.85 15.82 4.91 15.83C4.96 15.84 5.01 15.83 5.06 15.82C5.78 15.56 8.44 14.21 11.59 12.57L12.22 18.73C12.23 18.78 12.25 18.83 12.28 18.88C12.31 18.92 12.36 18.95 12.41 18.97C12.46 18.99 12.52 19 12.58 18.99C12.63 18.98 12.68 18.96 12.73 18.93L14.14 17.81C14.21 17.75 14.27 17.67 14.28 17.57L15.62 10.46C17.87 9.27 20.02 8.12 21.54 7.31C21.7 7.23 21.82 7.1 21.9 6.95C21.98 6.8 22.01 6.63 21.99 6.46C21.96 6.29 21.88 6.13 21.76 6.01C21.63 5.89 21.47 5.8 21.3 5.77Z" fill="#9F9F9F" fill-opacity="1.000000" fill-rule="evenodd"/>
</svg>
