<svg width="24.000000" height="24.000000" viewBox="0 0 24 24" fill="none" xmlns="http://www.w3.org/2000/svg" xmlns:xlink="http://www.w3.org/1999/xlink">
	<desc>
			Created with Pixso.
	</desc>
	<defs/>
	<rect rx="-0.500000" width="23.000000" height="23.000000" transform="translate(0.500000 0.500000)" fill="#FFFFFF" fill-opacity="0"/>
	<path d="M8 7C8 5.93 8.42 4.92 9.17 4.17C9.92 3.42 10.93 3 12 3C13.06 3 14.07 3.42 14.82 4.17C15.57 4.92 16 5.93 16 7C16 8.06 15.57 9.07 14.82 9.82C14.07 10.57 13.06 11 12 11C10.93 11 9.92 10.57 9.17 9.82C8.42 9.07 8 8.06 8 7ZM8 13C6.67 13 5.4 13.52 4.46 14.46C3.52 15.4 3 16.67 3 18C3 18.79 3.31 19.55 3.87 20.12C4.44 20.68 5.2 21 6 21L18 21C18.79 21 19.55 20.68 20.12 20.12C20.68 19.55 21 18.79 21 18C21 16.67 20.47 15.4 19.53 14.46C18.59 13.52 17.32 13 16 13L8 13Z" fill="#5E5F61" fill-opacity="1.000000" fill-rule="evenodd"/>
</svg>
