<svg width="24.000000" height="24.000000" viewBox="0 0 24 24" fill="none" xmlns="http://www.w3.org/2000/svg" xmlns:xlink="http://www.w3.org/1999/xlink">
	<desc>
			Created with Pixso.
	</desc>
	<defs/>
	<path d="M16.3 2.97C15.68 3.6 15.33 4.44 15.33 5.33L15.33 18.66C15.33 19.55 15.68 20.39 16.3 21.02C16.93 21.64 17.78 22 18.66 22C19.55 22 20.39 21.64 21.02 21.02C21.64 20.39 22 19.55 22 18.66C22 17.78 21.64 16.93 21.02 16.3C20.39 15.68 19.55 15.33 18.66 15.33L5.33 15.33C4.44 15.33 3.6 15.68 2.97 16.3C2.35 16.93 2 17.78 2 18.66C2 19.55 2.35 20.39 2.97 21.02C3.6 21.64 4.44 22 5.33 22C6.21 22 7.06 21.64 7.69 21.02C8.31 20.39 8.66 19.55 8.66 18.66L8.66 5.33C8.66 4.44 8.31 3.6 7.69 2.97C7.06 2.35 6.21 2 5.33 2C4.44 2 3.6 2.35 2.97 2.97C2.35 3.6 2 4.44 2 5.33C2 6.21 2.35 7.06 2.97 7.69C3.6 8.31 4.44 8.66 5.33 8.66L18.66 8.66C19.55 8.66 20.39 8.31 21.02 7.69C21.64 7.06 22 6.21 22 5.33C22 4.44 21.64 3.6 21.02 2.97C20.39 2.35 19.55 2 18.66 2C17.78 2 16.93 2.35 16.3 2.97Z" stroke="#FFFFFF" stroke-opacity="1.000000" stroke-width="2.000000" stroke-linejoin="round"/>
</svg>
